<?xml version="1.0" standalone="no"?>
<!DOCTYPE svg PUBLIC "-//W3C//DTD SVG 20010904//EN" "http://www.w3.org/TR/2001/REC-SVG-20010904/DTD/svg10.dtd">
<svg version="1.0" xmlns="http://www.w3.org/2000/svg"
    width="1024.000000pt" height="310.000000pt" viewBox="0 0 1024.000000 310.000000"
    preserveAspectRatio="xMidYMid meet">

    <g transform="translate(0.000000,310.000000) scale(0.100000,-0.100000)"
        fill="#000000" stroke="none">
        <path
            d="M1424 2345 c-9 -22 4 -35 36 -35 35 0 38 -4 32 -57 -4 -40 -5 -41
-46 -47 -104 -16 -224 -105 -274 -202 -98 -192 0 -437 205 -514 81 -31 203
-25 285 12 224 103 284 402 117 583 -55 60 -128 102 -201 116 -40 8 -58 16
-58 27 0 12 10 14 51 9 109 -13 236 -102 291 -204 14 -27 45 -112 69 -191 l42
-143 -26 -27 c-47 -50 -54 -90 -24 -150 23 -48 118 -69 165 -36 26 18 52 65
52 94 0 61 -57 120 -114 120 -26 0 -32 14 -92 225 -25 90 -60 153 -122 217
l-55 58 46 0 c26 0 47 5 47 10 0 6 -30 10 -69 10 -40 0 -84 7 -107 16 -21 9
-66 22 -99 28 -49 10 -61 17 -63 34 -2 13 -12 24 -25 27 -12 2 -31 6 -42 8
-11 3 17 5 63 6 47 1 82 5 82 11 0 6 -33 10 -80 10 -61 0 -82 -3 -86 -15z m64
-336 l-3 -171 -30 -24 c-16 -13 -38 -24 -47 -24 -10 0 -18 -7 -18 -15 0 -9 9
-15 25 -15 14 0 25 5 25 11 0 17 32 38 58 39 12 0 25 8 29 18 8 24 54 61 76
62 27 0 20 20 -8 20 -14 0 -25 -4 -25 -9 0 -5 -11 -16 -25 -25 l-25 -16 0 160
0 160 25 0 c90 0 222 -97 272 -199 24 -48 28 -69 28 -141 0 -76 -3 -92 -33
-152 -88 -179 -299 -246 -473 -151 -63 34 -114 90 -148 162 -22 47 -26 70 -26
141 0 71 4 94 26 140 51 109 170 196 272 199 l28 1 -3 -171z m600 -365 c34
-39 30 -95 -9 -128 -41 -35 -83 -34 -120 3 -33 34 -39 83 -13 119 24 35 42 27
50 -23 7 -48 19 -64 36 -47 8 8 6 23 -6 52 -9 22 -16 45 -16 51 0 19 53 0 78
-27z" />
    </g>
</svg>